<?xml version="1.0" encoding="UTF-8" standalone="no"?>
<svg
   viewBox="0 0 200 200"
   version="1.1"
   id="svg4"
   sodipodi:docname="blob2.svg"
   inkscape:version="1.1.1 (3bf5ae0d25, 2021-09-20)"
   xmlns:inkscape="http://www.inkscape.org/namespaces/inkscape"
   xmlns:sodipodi="http://sodipodi.sourceforge.net/DTD/sodipodi-0.dtd"
   xmlns="http://www.w3.org/2000/svg"
   xmlns:svg="http://www.w3.org/2000/svg">
  <defs
     id="defs8" />
  <sodipodi:namedview
     id="namedview6"
     pagecolor="#ffffff"
     bordercolor="#666666"
     borderopacity="1.0"
     inkscape:pageshadow="2"
     inkscape:pageopacity="0.0"
     inkscape:pagecheckerboard="0"
     showgrid="false"
     inkscape:zoom="4.06"
     inkscape:cx="100.24631"
     inkscape:cy="100.12315"
     inkscape:window-width="2400"
     inkscape:window-height="1271"
     inkscape:window-x="2391"
     inkscape:window-y="-9"
     inkscape:window-maximized="1"
     inkscape:current-layer="svg4" />
  <path
     fill="#9EF0F0"
     d="M37.6,-62.6C46.9,-52.5,51.2,-39,57.1,-26.1C63,-13.2,70.4,-1,69,10C67.5,20.9,57.1,30.7,46.1,35.8C35.2,40.8,23.7,41.2,13.6,42.3C3.5,43.5,-5.2,45.4,-18.5,48.3C-31.9,51.1,-49.9,55,-59.6,48.8C-69.4,42.7,-70.9,26.5,-67.2,13.3C-63.5,0,-54.6,-10.4,-51,-25.3C-47.4,-40.2,-49.1,-59.6,-41.5,-70.5C-33.9,-81.3,-16.9,-83.6,-1.4,-81.4C14.2,-79.3,28.3,-72.7,37.6,-62.6Z"
     transform="translate(100 100)"
     id="path2"
     style="fill:#77c7ed;fill-opacity:0.49107143" />
</svg>
