<?xml version="1.0" encoding="UTF-8" standalone="no"?>
<svg
   viewBox="0 0 200 200"
   version="1.1"
   id="svg4"
   sodipodi:docname="blob1.svg"
   inkscape:version="1.1.1 (3bf5ae0d25, 2021-09-20)"
   xmlns:inkscape="http://www.inkscape.org/namespaces/inkscape"
   xmlns:sodipodi="http://sodipodi.sourceforge.net/DTD/sodipodi-0.dtd"
   xmlns="http://www.w3.org/2000/svg"
   xmlns:svg="http://www.w3.org/2000/svg">
  <defs
     id="defs8" />
  <sodipodi:namedview
     id="namedview6"
     pagecolor="#ffffff"
     bordercolor="#666666"
     borderopacity="1.0"
     inkscape:pageshadow="2"
     inkscape:pageopacity="0.0"
     inkscape:pagecheckerboard="0"
     showgrid="false"
     inkscape:zoom="4.06"
     inkscape:cx="100.24631"
     inkscape:cy="100.12315"
     inkscape:window-width="2400"
     inkscape:window-height="1271"
     inkscape:window-x="2391"
     inkscape:window-y="-9"
     inkscape:window-maximized="1"
     inkscape:current-layer="svg4" />
  <path
     fill="#ffd6e8"
     d="m 148.79833,21.8 c 9.89775,7.3 11.41271,26.4 12.52368,41.8 1.11098,15.5 1.81796,27.3 -1.11097,37.7 -2.82793,10.5 -9.29177,19.5 -16.86658,27 -7.47381,7.5 -16.15959,13.3 -26.96632,20.1 C 105.67241,155.2 92.744734,163 83.250972,160 73.75721,156.9 67.596365,143.1 61.637514,131.7 55.678664,120.3 49.921808,111.3 45.174928,100.2 40.529044,89.1 36.893135,75.9 37.701115,60.6 38.408097,45.4 43.558968,28.1 55.072679,21.5 66.58639,15 84.664937,19.2 102.74348,19 c 18.07855,-0.1 36.25809,-4.5 46.05485,2.8 z"
     id="path2"
     style="stroke-width:1.00497" />
</svg>
